<svg version="1.1" preserveAspectRatio="none" xmlns="http://www.w3.org/2000/svg" width="500" height="500" viewBox="0 0 500 500"><rect width="100%" height="100%" fill="#0B123F" fill-opacity="1"/><svg viewBox="51.2118 419.2402 475.0072 181.2302" width="333" height="127.04998282131301" x="83.5px" y="186.475px" xmlns="http://www.w3.org/2000/svg" xmlns:xlink="http://www.w3.org/1999/xlink" preserveAspectRatio="none"><defs></defs><style>.companyName {fill:#FFFFFF;fill-opacity:1;}.companyName-floo {flood-color:#FFFFFF;flood-opacity:1;}.icon3 {fill:#2317FF;fill-opacity:1;}.icon3-floo {flood-color:#2317FF;flood-opacity:1;}.icon3-str {stroke:#2317FF;stroke-opacity:1;}.shape-floo {flood-color:#FF8000;flood-opacity:1;}</style><defs>
      <filter
        x="54.2118"
        y="419.2402"
        width="469.0072"
        height="158"
        id="RWrrEA-PR"
        filterUnits="userSpaceOnUse"
        primitiveUnits="userSpaceOnUse"
        color-interpolation-filters="sRGB">
        
    <feGaussianBlur in="SourceGraphic" stdDeviation="6"/>
    <feOffset dx="0" dy="-8" result="a8F3E-heeqwS"/>
    <feFlood flood-color="#2317FF" flood-opacity="1" in="a8F3E-heeqwS" />
    <feComposite  in2="a8F3E-heeqwS" operator="in" result="a3c94BDT3oyq"/><feMerge result="wKo95wdoNYd"><feMergeNode in="a3c94BDT3oyq" /><feMergeNode in="SourceGraphic" /></feMerge><feGaussianBlur  result="LOPrIu70mxq" stdDeviation="7" />
      </filter>
      <filter
        x="51.2118"
        y="436.4704"
        width="475.0072"
        height="164"
        id="ikYEXSHZT"
        filterUnits="userSpaceOnUse"
        primitiveUnits="userSpaceOnUse"
        color-interpolation-filters="sRGB">
        
    <feGaussianBlur in="SourceGraphic" stdDeviation="7"/>
    <feOffset dx="0" dy="8.230244223212566" result="f6s-zLeEfY4"/>
    <feFlood flood-color="#FF8000" flood-opacity="1" in="f6s-zLeEfY4" />
    <feComposite  in2="f6s-zLeEfY4" operator="in" result="wNoUzODlHf9"/><feMerge result="QVKLjuBLhaf"><feMergeNode in="wNoUzODlHf9" /><feMergeNode in="SourceGraphic" /></feMerge><feGaussianBlur  result="DCL21o1Q-Gi" stdDeviation="7" />
      </filter>
      <filter
        x="75.2119"
        y="448.2402"
        width="427.007"
        height="116"
        id="tUk6sjh6M"
        filterUnits="userSpaceOnUse"
        primitiveUnits="userSpaceOnUse"
        color-interpolation-filters="sRGB">
        
    <feGaussianBlur in="SourceGraphic" stdDeviation="6"/>
    <feOffset dx="0" dy="0" result="i8QOSNZ-ThH"/>
    <feFlood flood-color="#FFFFFF" flood-opacity="1" in="i8QOSNZ-ThH" />
    <feComposite  in2="i8QOSNZ-ThH" operator="in" result="T8i5NTTnYGE"/><feMerge result="a9rhxoaYm1ub"><feMergeNode in="T8i5NTTnYGE" /><feMergeNode in="SourceGraphic" /></feMerge>
      </filter></defs><g filter="url(#RWrrEA-PR)"><g opacity="1" transform="rotate(0 93.2118 466.2402)">
<svg width="391.0072" height="80" x="93.2118" y="466.2402" version="1.1" preserveAspectRatio="none" viewBox="0.4102 -32.3242 208.582 42.675799999999995">
  <g transform="matrix(1 0 0 1 0 0)" class="icon3"><path id="id-KYFLWsHjp7" d="M0.41 0L14.75-30.53L21.31-30.53L36.07 0L29.57 0L27.13-5.14L9.30-5.14L6.93 0L0.41 0ZM11.66-10.23L24.69-10.23L18.09-24.10L11.66-10.23Z M42.10 0L42.10-23.05L47.88-23.05L47.88-21.09Q50.18-22.40 52.28-22.93Q54.38-23.46 56.39-23.46L56.39-23.46Q59.03-23.46 61.28-22.69Q63.52-21.91 65.16-20.39Q66.80-18.87 67.73-16.59Q68.66-14.32 68.66-11.33L68.66-11.33L68.66 0L62.90 0L62.90-10.39Q62.90-12.29 62.36-13.78Q61.82-15.27 60.82-16.30Q59.81-17.32 58.38-17.86Q56.94-18.40 55.16-18.40L55.16-18.40Q54.23-18.40 53.24-18.20Q52.25-18.01 51.31-17.65Q50.36-17.29 49.48-16.75Q48.60-16.21 47.88-15.53L47.88-15.53L47.88 0L42.10 0Z M78.36 7.77L80.50 2.89Q81.40 3.48 82.46 3.93Q83.51 4.38 84.65 4.67Q85.80 4.96 86.99 5.11Q88.18 5.25 89.35 5.25L89.35 5.25Q93.34 5.25 95.49 3.54Q97.65 1.84 97.65-1.58L97.65-1.58L97.65-2.36Q96.89-1.84 95.94-1.40Q95.00-0.96 93.91-0.64Q92.83-0.33 91.63-0.17Q90.43 0 89.20 0L89.20 0Q86.56 0 84.48-0.77Q82.40-1.54 80.96-3.04Q79.53-4.53 78.77-6.72Q78.00-8.91 78.00-11.72L78.00-11.72L78.00-23.05L83.77-23.05L83.77-13.32Q83.77-9.14 85.36-7.16Q86.95-5.18 90.39-5.18L90.39-5.18Q92.81-5.18 94.67-6.03Q96.54-6.88 97.65-8.20L97.65-8.20L97.65-23.05L103.43-23.05L103.43-2.64Q103.43 0.66 102.50 3.10Q101.56 5.53 99.77 7.13Q97.98 8.73 95.39 9.52Q92.79 10.31 89.49 10.31L89.49 10.31Q86.27 10.31 83.47 9.63Q80.68 8.95 78.36 7.77L78.36 7.77Z M113.64 0L113.64-30.53L124.83-30.53Q129.73-30.53 133.34-29.47Q136.96-28.42 139.33-26.46Q141.70-24.49 142.87-21.69Q144.03-18.89 144.03-15.39L144.03-15.39Q144.03-12.07 142.88-9.25Q141.72-6.43 139.36-4.37Q137.00-2.30 133.38-1.14Q129.77 0.02 124.87 0.02L124.87 0.02L113.64 0ZM119.83-5.35L126.35-5.35Q129.13-5.35 131.21-6.06Q133.30-6.78 134.70-8.09Q136.10-9.39 136.80-11.25Q137.50-13.11 137.50-15.39L137.50-15.39Q137.50-17.64 136.80-19.44Q136.10-21.25 134.70-22.51Q133.30-23.77 131.21-24.45Q129.13-25.14 126.35-25.14L126.35-25.14L119.83-25.14L119.83-5.35Z M154.56-26.19L154.56-26.19Q153.70-26.19 153.01-26.44Q152.32-26.68 151.83-27.10Q151.34-27.52 151.08-28.08Q150.81-28.63 150.81-29.26L150.81-29.26Q150.81-29.90 151.08-30.46Q151.34-31.02 151.83-31.43Q152.32-31.84 153.01-32.08Q153.70-32.32 154.56-32.32L154.56-32.32Q155.44-32.32 156.13-32.08Q156.83-31.84 157.32-31.43Q157.80-31.02 158.07-30.46Q158.33-29.90 158.33-29.26L158.33-29.26Q158.33-28.63 158.07-28.08Q157.80-27.52 157.32-27.10Q156.83-26.68 156.13-26.44Q155.44-26.19 154.56-26.19ZM151.67 0L151.67-23.05L157.45-23.05L157.45 0L151.67 0Z M168.32 8.79L170.47 3.91Q171.56 4.30 172.70 4.56Q173.83 4.82 174.89 4.99Q175.96 5.16 176.93 5.22Q177.91 5.29 178.67 5.29L178.67 5.29Q180.98 5.29 182.69 4.74Q184.39 4.18 185.54 3.24Q186.68 2.30 187.25 1.06Q187.81-0.18 187.81-1.56L187.81-1.56L187.81-2.56Q187.07-2.05 186.07-1.58Q185.08-1.11 183.89-0.76Q182.70-0.41 181.36-0.20Q180.02 0.02 178.59 0.02L178.59 0.02Q175.76 0.02 173.36-0.83Q170.96-1.68 169.20-3.21Q167.44-4.75 166.46-6.89Q165.47-9.04 165.47-11.66L165.47-11.66Q165.47-14.34 166.50-16.51Q167.54-18.69 169.37-20.23Q171.19-21.78 173.69-22.62Q176.19-23.46 179.12-23.46L179.12-23.46Q180.37-23.46 181.60-23.30Q182.83-23.14 183.96-22.87Q185.08-22.60 186.06-22.22Q187.05-21.84 187.81-21.39L187.81-21.39L187.81-23.05L193.59-23.05L193.59-2.64Q193.59 0.51 192.64 2.93Q191.68 5.35 189.83 7.00Q187.99 8.65 185.25 9.50Q182.52 10.35 178.98 10.35L178.98 10.35Q177.71 10.35 176.35 10.24Q174.98 10.14 173.60 9.93Q172.23 9.73 170.89 9.44Q169.55 9.16 168.32 8.79L168.32 8.79ZM171.54-11.72L171.54-11.72Q171.54-10.33 172.10-9.11Q172.66-7.89 173.69-6.98Q174.73-6.07 176.19-5.56Q177.66-5.04 179.49-5.04L179.49-5.04Q180.68-5.04 181.87-5.26Q183.05-5.49 184.13-5.90Q185.21-6.31 186.16-6.89Q187.11-7.48 187.81-8.20L187.81-8.20L187.81-15.80Q186.93-16.50 185.96-16.99Q184.98-17.48 183.96-17.79Q182.95-18.11 181.91-18.25Q180.88-18.40 179.90-18.40L179.90-18.40Q177.91-18.40 176.36-17.87Q174.80-17.34 173.74-16.44Q172.68-15.53 172.11-14.32Q171.54-13.11 171.54-11.72Z M205.22-26.19L205.22-26.19Q204.36-26.19 203.67-26.44Q202.98-26.68 202.49-27.10Q202-27.52 201.74-28.08Q201.47-28.63 201.47-29.26L201.47-29.26Q201.47-29.90 201.74-30.46Q202-31.02 202.49-31.43Q202.98-31.84 203.67-32.08Q204.36-32.32 205.22-32.32L205.22-32.32Q206.10-32.32 206.79-32.08Q207.49-31.84 207.98-31.43Q208.46-31.02 208.73-30.46Q208.99-29.90 208.99-29.26L208.99-29.26Q208.99-28.63 208.73-28.08Q208.46-27.52 207.98-27.10Q207.49-26.68 206.79-26.44Q206.10-26.19 205.22-26.19ZM202.33 0L202.33-23.05L208.11-23.05L208.11 0L202.33 0Z"/></g>
</svg>
</g></g><g filter="url(#ikYEXSHZT)"><g opacity="1" transform="rotate(0 93.2118 470.2402)">
<svg width="391.0072" height="80" x="93.2118" y="470.2402" version="1.1" preserveAspectRatio="none" viewBox="0.4102 -32.3242 208.582 42.675799999999995">
  <g transform="matrix(1 0 0 1 0 0)" class="icon3"><path id="id-BEGfasMba7" d="M0.41 0L14.75-30.53L21.31-30.53L36.07 0L29.57 0L27.13-5.14L9.30-5.14L6.93 0L0.41 0ZM11.66-10.23L24.69-10.23L18.09-24.10L11.66-10.23Z M42.10 0L42.10-23.05L47.88-23.05L47.88-21.09Q50.18-22.40 52.28-22.93Q54.38-23.46 56.39-23.46L56.39-23.46Q59.03-23.46 61.28-22.69Q63.52-21.91 65.16-20.39Q66.80-18.87 67.73-16.59Q68.66-14.32 68.66-11.33L68.66-11.33L68.66 0L62.90 0L62.90-10.39Q62.90-12.29 62.36-13.78Q61.82-15.27 60.82-16.30Q59.81-17.32 58.38-17.86Q56.94-18.40 55.16-18.40L55.16-18.40Q54.23-18.40 53.24-18.20Q52.25-18.01 51.31-17.65Q50.36-17.29 49.48-16.75Q48.60-16.21 47.88-15.53L47.88-15.53L47.88 0L42.10 0Z M78.36 7.77L80.50 2.89Q81.40 3.48 82.46 3.93Q83.51 4.38 84.65 4.67Q85.80 4.96 86.99 5.11Q88.18 5.25 89.35 5.25L89.35 5.25Q93.34 5.25 95.49 3.54Q97.65 1.84 97.65-1.58L97.65-1.58L97.65-2.36Q96.89-1.84 95.94-1.40Q95.00-0.96 93.91-0.64Q92.83-0.33 91.63-0.17Q90.43 0 89.20 0L89.20 0Q86.56 0 84.48-0.77Q82.40-1.54 80.96-3.04Q79.53-4.53 78.77-6.72Q78.00-8.91 78.00-11.72L78.00-11.72L78.00-23.05L83.77-23.05L83.77-13.32Q83.77-9.14 85.36-7.16Q86.95-5.18 90.39-5.18L90.39-5.18Q92.81-5.18 94.67-6.03Q96.54-6.88 97.65-8.20L97.65-8.20L97.65-23.05L103.43-23.05L103.43-2.64Q103.43 0.66 102.50 3.10Q101.56 5.53 99.77 7.13Q97.98 8.73 95.39 9.52Q92.79 10.31 89.49 10.31L89.49 10.31Q86.27 10.31 83.47 9.63Q80.68 8.95 78.36 7.77L78.36 7.77Z M113.64 0L113.64-30.53L124.83-30.53Q129.73-30.53 133.34-29.47Q136.96-28.42 139.33-26.46Q141.70-24.49 142.87-21.69Q144.03-18.89 144.03-15.39L144.03-15.39Q144.03-12.07 142.88-9.25Q141.72-6.43 139.36-4.37Q137.00-2.30 133.38-1.14Q129.77 0.02 124.87 0.02L124.87 0.02L113.64 0ZM119.83-5.35L126.35-5.35Q129.13-5.35 131.21-6.06Q133.30-6.78 134.70-8.09Q136.10-9.39 136.80-11.25Q137.50-13.11 137.50-15.39L137.50-15.39Q137.50-17.64 136.80-19.44Q136.10-21.25 134.70-22.51Q133.30-23.77 131.21-24.45Q129.13-25.14 126.35-25.14L126.35-25.14L119.83-25.14L119.83-5.35Z M154.56-26.19L154.56-26.19Q153.70-26.19 153.01-26.44Q152.32-26.68 151.83-27.10Q151.34-27.52 151.08-28.08Q150.81-28.63 150.81-29.26L150.81-29.26Q150.81-29.90 151.08-30.46Q151.34-31.02 151.83-31.43Q152.32-31.84 153.01-32.08Q153.70-32.32 154.56-32.32L154.56-32.32Q155.44-32.32 156.13-32.08Q156.83-31.84 157.32-31.43Q157.80-31.02 158.07-30.46Q158.33-29.90 158.33-29.26L158.33-29.26Q158.33-28.63 158.07-28.08Q157.80-27.52 157.32-27.10Q156.83-26.68 156.13-26.44Q155.44-26.19 154.56-26.19ZM151.67 0L151.67-23.05L157.45-23.05L157.45 0L151.67 0Z M168.32 8.79L170.47 3.91Q171.56 4.30 172.70 4.56Q173.83 4.82 174.89 4.99Q175.96 5.16 176.93 5.22Q177.91 5.29 178.67 5.29L178.67 5.29Q180.98 5.29 182.69 4.74Q184.39 4.18 185.54 3.24Q186.68 2.30 187.25 1.06Q187.81-0.18 187.81-1.56L187.81-1.56L187.81-2.56Q187.07-2.05 186.07-1.58Q185.08-1.11 183.89-0.76Q182.70-0.41 181.36-0.20Q180.02 0.02 178.59 0.02L178.59 0.02Q175.76 0.02 173.36-0.83Q170.96-1.68 169.20-3.21Q167.44-4.75 166.46-6.89Q165.47-9.04 165.47-11.66L165.47-11.66Q165.47-14.34 166.50-16.51Q167.54-18.69 169.37-20.23Q171.19-21.78 173.69-22.62Q176.19-23.46 179.12-23.46L179.12-23.46Q180.37-23.46 181.60-23.30Q182.83-23.14 183.96-22.87Q185.08-22.60 186.06-22.22Q187.05-21.84 187.81-21.39L187.81-21.39L187.81-23.05L193.59-23.05L193.59-2.64Q193.59 0.51 192.64 2.93Q191.68 5.35 189.83 7.00Q187.99 8.65 185.25 9.50Q182.52 10.35 178.98 10.35L178.98 10.35Q177.71 10.35 176.35 10.24Q174.98 10.14 173.60 9.93Q172.23 9.73 170.89 9.44Q169.55 9.16 168.32 8.79L168.32 8.79ZM171.54-11.72L171.54-11.72Q171.54-10.33 172.10-9.11Q172.66-7.89 173.69-6.98Q174.73-6.07 176.19-5.56Q177.66-5.04 179.49-5.04L179.49-5.04Q180.68-5.04 181.87-5.26Q183.05-5.49 184.13-5.90Q185.21-6.31 186.16-6.89Q187.11-7.48 187.81-8.20L187.81-8.20L187.81-15.80Q186.93-16.50 185.96-16.99Q184.98-17.48 183.96-17.79Q182.95-18.11 181.91-18.25Q180.88-18.40 179.90-18.40L179.90-18.40Q177.91-18.40 176.36-17.87Q174.80-17.34 173.74-16.44Q172.68-15.53 172.11-14.32Q171.54-13.11 171.54-11.72Z M205.22-26.19L205.22-26.19Q204.36-26.19 203.67-26.44Q202.98-26.68 202.49-27.10Q202-27.52 201.74-28.08Q201.47-28.63 201.47-29.26L201.47-29.26Q201.47-29.90 201.74-30.46Q202-31.02 202.49-31.43Q202.98-31.84 203.67-32.08Q204.36-32.32 205.22-32.32L205.22-32.32Q206.10-32.32 206.79-32.08Q207.49-31.84 207.98-31.43Q208.46-31.02 208.73-30.46Q208.99-29.90 208.99-29.26L208.99-29.26Q208.99-28.63 208.73-28.08Q208.46-27.52 207.98-27.10Q207.49-26.68 206.79-26.44Q206.10-26.19 205.22-26.19ZM202.33 0L202.33-23.05L208.11-23.05L208.11 0L202.33 0Z"/></g>
</svg>
</g></g><g filter="url(#tUk6sjh6M)"><g opacity="1" transform="rotate(0 93.2119 466.2402)">
<svg width="391.007" height="80" x="93.2119" y="466.2402" version="1.1" preserveAspectRatio="none" viewBox="0.4102 -32.3242 208.582 42.675799999999995">
  <g transform="matrix(1 0 0 1 0 0)" class="companyName"><path id="id-D6z1nYkh7" d="M0.41 0L14.75-30.53L21.31-30.53L36.07 0L29.57 0L27.13-5.14L9.30-5.14L6.93 0L0.41 0ZM11.66-10.23L24.69-10.23L18.09-24.10L11.66-10.23Z M42.10 0L42.10-23.05L47.88-23.05L47.88-21.09Q50.18-22.40 52.28-22.93Q54.38-23.46 56.39-23.46L56.39-23.46Q59.03-23.46 61.28-22.69Q63.52-21.91 65.16-20.39Q66.80-18.87 67.73-16.59Q68.66-14.32 68.66-11.33L68.66-11.33L68.66 0L62.90 0L62.90-10.39Q62.90-12.29 62.36-13.78Q61.82-15.27 60.82-16.30Q59.81-17.32 58.38-17.86Q56.94-18.40 55.16-18.40L55.16-18.40Q54.23-18.40 53.24-18.20Q52.25-18.01 51.31-17.65Q50.36-17.29 49.48-16.75Q48.60-16.21 47.88-15.53L47.88-15.53L47.88 0L42.10 0Z M78.36 7.77L80.50 2.89Q81.40 3.48 82.46 3.93Q83.51 4.38 84.65 4.67Q85.80 4.96 86.99 5.11Q88.18 5.25 89.35 5.25L89.35 5.25Q93.34 5.25 95.49 3.54Q97.65 1.84 97.65-1.58L97.65-1.58L97.65-2.36Q96.89-1.84 95.94-1.40Q95.00-0.96 93.91-0.64Q92.83-0.33 91.63-0.17Q90.43 0 89.20 0L89.20 0Q86.56 0 84.48-0.77Q82.40-1.54 80.96-3.04Q79.53-4.53 78.77-6.72Q78.00-8.91 78.00-11.72L78.00-11.72L78.00-23.05L83.77-23.05L83.77-13.32Q83.77-9.14 85.36-7.16Q86.95-5.18 90.39-5.18L90.39-5.18Q92.81-5.18 94.67-6.03Q96.54-6.88 97.65-8.20L97.65-8.20L97.65-23.05L103.43-23.05L103.43-2.64Q103.43 0.66 102.50 3.10Q101.56 5.53 99.77 7.13Q97.98 8.73 95.39 9.52Q92.79 10.31 89.49 10.31L89.49 10.31Q86.27 10.31 83.47 9.63Q80.68 8.95 78.36 7.77L78.36 7.77Z M113.64 0L113.64-30.53L124.83-30.53Q129.73-30.53 133.34-29.47Q136.96-28.42 139.33-26.46Q141.70-24.49 142.87-21.69Q144.03-18.89 144.03-15.39L144.03-15.39Q144.03-12.07 142.88-9.25Q141.72-6.43 139.36-4.37Q137.00-2.30 133.38-1.14Q129.77 0.02 124.87 0.02L124.87 0.02L113.64 0ZM119.83-5.35L126.35-5.35Q129.13-5.35 131.21-6.06Q133.30-6.78 134.70-8.09Q136.10-9.39 136.80-11.25Q137.50-13.11 137.50-15.39L137.50-15.39Q137.50-17.64 136.80-19.44Q136.10-21.25 134.70-22.51Q133.30-23.77 131.21-24.45Q129.13-25.14 126.35-25.14L126.35-25.14L119.83-25.14L119.83-5.35Z M154.56-26.19L154.56-26.19Q153.70-26.19 153.01-26.44Q152.32-26.68 151.83-27.10Q151.34-27.52 151.08-28.08Q150.81-28.63 150.81-29.26L150.81-29.26Q150.81-29.90 151.08-30.46Q151.34-31.02 151.83-31.43Q152.32-31.84 153.01-32.08Q153.70-32.32 154.56-32.32L154.56-32.32Q155.44-32.32 156.13-32.08Q156.83-31.84 157.32-31.43Q157.80-31.02 158.07-30.46Q158.33-29.90 158.33-29.26L158.33-29.26Q158.33-28.63 158.07-28.08Q157.80-27.52 157.32-27.10Q156.83-26.68 156.13-26.44Q155.44-26.19 154.56-26.19ZM151.67 0L151.67-23.05L157.45-23.05L157.45 0L151.67 0Z M168.32 8.79L170.47 3.91Q171.56 4.30 172.70 4.56Q173.83 4.82 174.89 4.99Q175.96 5.16 176.93 5.22Q177.91 5.29 178.67 5.29L178.67 5.29Q180.98 5.29 182.69 4.74Q184.39 4.18 185.54 3.24Q186.68 2.30 187.25 1.06Q187.81-0.18 187.81-1.56L187.81-1.56L187.81-2.56Q187.07-2.05 186.07-1.58Q185.08-1.11 183.89-0.76Q182.70-0.41 181.36-0.20Q180.02 0.02 178.59 0.02L178.59 0.02Q175.76 0.02 173.36-0.83Q170.96-1.68 169.20-3.21Q167.44-4.75 166.46-6.89Q165.47-9.04 165.47-11.66L165.47-11.66Q165.47-14.34 166.50-16.51Q167.54-18.69 169.37-20.23Q171.19-21.78 173.69-22.62Q176.19-23.46 179.12-23.46L179.12-23.46Q180.37-23.46 181.60-23.30Q182.83-23.14 183.96-22.87Q185.08-22.60 186.06-22.22Q187.05-21.84 187.81-21.39L187.81-21.39L187.81-23.05L193.59-23.05L193.59-2.64Q193.59 0.51 192.64 2.93Q191.68 5.35 189.83 7.00Q187.99 8.65 185.25 9.50Q182.52 10.35 178.98 10.35L178.98 10.35Q177.71 10.35 176.35 10.24Q174.98 10.14 173.60 9.93Q172.23 9.73 170.89 9.44Q169.55 9.16 168.32 8.79L168.32 8.79ZM171.54-11.72L171.54-11.72Q171.54-10.33 172.10-9.11Q172.66-7.89 173.69-6.98Q174.73-6.07 176.19-5.56Q177.66-5.04 179.49-5.04L179.49-5.04Q180.68-5.04 181.87-5.26Q183.05-5.49 184.13-5.90Q185.21-6.31 186.16-6.89Q187.11-7.48 187.81-8.20L187.81-8.20L187.81-15.80Q186.93-16.50 185.96-16.99Q184.98-17.48 183.96-17.79Q182.95-18.11 181.91-18.25Q180.88-18.40 179.90-18.40L179.90-18.40Q177.91-18.40 176.36-17.87Q174.80-17.34 173.74-16.44Q172.68-15.53 172.11-14.32Q171.54-13.11 171.54-11.72Z M205.22-26.19L205.22-26.19Q204.36-26.19 203.67-26.44Q202.98-26.68 202.49-27.10Q202-27.52 201.74-28.08Q201.47-28.63 201.47-29.26L201.47-29.26Q201.47-29.90 201.74-30.46Q202-31.02 202.49-31.43Q202.98-31.84 203.67-32.08Q204.36-32.32 205.22-32.32L205.22-32.32Q206.10-32.32 206.79-32.08Q207.49-31.84 207.98-31.43Q208.46-31.02 208.73-30.46Q208.99-29.90 208.99-29.26L208.99-29.26Q208.99-28.63 208.73-28.08Q208.46-27.52 207.98-27.10Q207.49-26.68 206.79-26.44Q206.10-26.19 205.22-26.19ZM202.33 0L202.33-23.05L208.11-23.05L208.11 0L202.33 0Z"/></g>
</svg>
</g></g></svg></svg>