<svg version="1.1" preserveAspectRatio="none" xmlns="http://www.w3.org/2000/svg" width="500" height="500" viewBox="0 0 500 500"><rect width="100%" height="100%" fill="#000000" fill-opacity="1"/><svg viewBox="503.5636 339.9113 393.1264 100" width="333" height="84.70558069872692" x="83.5px" y="207.6472px" xmlns="http://www.w3.org/2000/svg" xmlns:xlink="http://www.w3.org/1999/xlink" preserveAspectRatio="none"><defs></defs><style>.aD6z1nYkhcolor {fill:#E3E3E3;fill-opacity:1;}.atBXipXk0bfillColor {fill:#808080;fill-opacity:1;}.icon3-str {stroke:#808080;stroke-opacity:1;}.shapeStroke-str {stroke:#E3E3E3;stroke-opacity:1;}</style><g opacity="1" transform="rotate(0 524.5636 339.9113)">
<svg width="372.1264" height="100" x="524.5636" y="339.9113" version="1.1" preserveAspectRatio="none" viewBox="0.28 -29.72 137.23999999999998 36.879999999999995">
  <g transform="matrix(1 0 0 1 0 0)" class="aD6z1nYkhcolor"><path id="id-D6z1nYkh7" d="M17.44 0L16.28-4.36L8.48-4.36L7.32 0L0.28 0L6.92-25L17.84-25L24.48 0L17.44 0ZM9.88-9.52L14.88-9.52L12.56-18.28L12.20-18.28L9.88-9.52Z M27.16 0L27.16-20L30.64-20L32.44-18Q35.76-20.56 40.28-20.56L40.28-20.56Q43.08-20.56 44.64-19.42Q46.20-18.28 46.20-16.24L46.20-16.24L46.20 0L39.16 0L39.16-14.76L36.20-14.76Q35.08-14.76 34.64-14.44Q34.20-14.12 34.20-13.36L34.20-13.36L34.20 0L27.16 0Z M61.60-20L68.48-20L63.80-1.80L63.76-1.80Q62.92 1.60 61.68 3.54Q60.44 5.48 58.50 6.32Q56.56 7.16 53.52 7.16L53.52 7.16Q51.12 7.16 49.04 6.56L49.04 6.56L49.36 2.84L53.68 2.32Q54.88 2.16 55.52 1.84Q56.16 1.52 56.50 0.84Q56.84 0.16 57.12-1.20L57.12-1.20L57.28-1.80L53.20-1.80L48.52-20L55.40-20L58.28-7.96L58.68-7.96L61.60-20Z M71-25L81.64-25Q86.24-25 88.64-23.92Q91.04-22.84 92.02-20.20Q93-17.56 93-12.48L93-12.48Q93-7.40 92.02-4.76Q91.04-2.12 88.64-1.06Q86.24 0 81.64 0L81.64 0L71 0L71-25ZM78.04-19.48L78.04-5.52L82.28-5.52Q84.04-5.52 84.72-6.10Q85.40-6.68 85.40-8.16L85.40-8.16L85.40-16.84Q85.40-18.32 84.72-18.90Q84.04-19.48 82.28-19.48L82.28-19.48L78.04-19.48Z M96.60 0L96.60 0ZM96.92-19.16L103.96-20.08L103.96 0L96.92 0L96.92-19.16ZM100.40-22.12Q98.88-22.12 98.08-22.44Q97.28-22.76 96.94-23.56Q96.60-24.36 96.60-25.88L96.60-25.88Q96.60-28.08 97.40-28.90Q98.20-29.72 100.40-29.72L100.40-29.72Q102.60-29.72 103.40-28.90Q104.20-28.08 104.20-25.88L104.20-25.88Q104.20-23.68 103.40-22.90Q102.60-22.12 100.40-22.12L100.40-22.12Z M118.36-4.36Q121.44-3.96 123.06-3.36Q124.68-2.76 125.34-1.76Q126-0.76 126 1L126 1Q126 4.08 123.88 5.50Q121.76 6.92 117.08 6.92L117.08 6.92Q112.16 6.92 107.88 5.60L107.88 5.60L108.72 0.64Q112.52 1.68 115.72 1.68L115.72 1.68Q117.76 1.68 119.68 1.44L119.68 1.44L119.68-0.40Q115.88-0.68 114.22-1.12Q112.56-1.56 112.56-2.28L112.56-2.28L113.72-5.96Q110.48-6.40 109-8.14Q107.52-9.88 107.52-13.16L107.52-13.16Q107.52-17.08 109.66-18.84Q111.80-20.60 116.60-20.60L116.60-20.60Q119.08-20.60 120.72-20.20L120.72-20.20L124.08-22.80L127.48-19.56L125.24-16.68Q125.80-15.20 125.80-13.16L125.80-13.16Q125.80-9.60 124.06-7.86Q122.32-6.12 118.44-5.84L118.44-5.84L118.36-4.36ZM114.24-15.28L114.24-9.48L117.32-9.48Q118.28-9.48 118.66-9.84Q119.04-10.20 119.04-11.04L119.04-11.04L119.04-16.88L115.92-16.88Q114.96-16.88 114.60-16.54Q114.24-16.20 114.24-15.28L114.24-15.28Z M129.92 0L129.92 0ZM130.24-19.16L137.28-20.08L137.28 0L130.24 0L130.24-19.16ZM133.72-22.12Q132.20-22.12 131.40-22.44Q130.60-22.76 130.26-23.56Q129.92-24.36 129.92-25.88L129.92-25.88Q129.92-28.08 130.72-28.90Q131.52-29.72 133.72-29.72L133.72-29.72Q135.92-29.72 136.72-28.90Q137.52-28.08 137.52-25.88L137.52-25.88Q137.52-23.68 136.72-22.90Q135.92-22.12 133.72-22.12L133.72-22.12Z"/></g>
</svg>
</g><g opacity="1" transform="rotate(0 503.5636 339.9113)">
<svg width="3" height="100" x="503.5636" y="339.9113" version="1.1" preserveAspectRatio="none" viewBox="0 0 3 100">
  <defs><rect x="0" y="0" width="3" height="100" rx="0px" ry="0px" id="id-tBXipXk0b1721971616430"></rect></defs><use class="atBXipXk0bfillColor shapeStroke-str" style="stroke-width:0;" xlink:href="#id-tBXipXk0b1721971616430"></use>
</svg>
</g></svg></svg>