<svg version="1.1" preserveAspectRatio="none" xmlns="http://www.w3.org/2000/svg" width="500" height="500" viewBox="0 0 500 500"><rect width="100%" height="100%" fill="#121B31" fill-opacity="1"/><svg viewBox="204.4753 239.0297 379.1339 91" width="333" height="79.92690709008085" x="83.5px" y="210.0365px" xmlns="http://www.w3.org/2000/svg" xmlns:xlink="http://www.w3.org/1999/xlink" preserveAspectRatio="none"><defs></defs><style>.companyName {fill:#F7F7F7;fill-opacity:1;}.icon3 {fill:#D0E156;fill-opacity:1;}.icon3-str {stroke:#D0E156;stroke-opacity:1;}.shapeStroke-str {stroke:#F7F7F7;stroke-opacity:1;}</style><g opacity="1" transform="rotate(0 204.4753 239.0297)">
<svg width="379.1339" height="70" x="204.4753" y="239.0297" version="1.1" preserveAspectRatio="none" viewBox="0.76 -26.8 147.32000000000002 27.2">
  <g transform="matrix(1 0 0 1 0 0)" class="companyName"><path id="id-D6z1nYkh7" d="M22.12 0L18.80-8.28L6.16-8.28L2.88 0L0.76 0L11.32-26.40L13.68-26.40L24.24 0L22.12 0ZM6.92-10.12L18.08-10.12L13.48-21.64L12.52-24.44L12.48-24.44L11.52-21.72L6.92-10.12Z M49.44-26.40L49.44 0L46.96 0L32.96-20.72L31-24.24L30.96-24.24L31.08-20.92L31.08 0L29.16 0L29.16-26.40L31.68-26.40L45.64-5.72L47.64-2.16L47.56-5.48L47.56-26.40L49.44-26.40Z M74.84-26.40L65.48-10.28L65.48 0L63.48 0L63.48-10.28L54.12-26.40L56.48-26.40L64.48-12.36L72.48-26.40L74.84-26.40Z M87.84-26.40Q94.16-26.40 97.58-23.06Q101-19.72 101-13.40L101-13.40Q101-6.92 97.58-3.46Q94.16 0 87.84 0L87.84 0L79.52 0L79.52-26.40L87.84-26.40ZM88-1.84Q93.28-1.84 96.10-4.82Q98.92-7.80 98.92-13.40L98.92-13.40Q98.92-18.76 96.10-21.66Q93.28-24.56 88-24.56L88-24.56L81.52-24.56L81.52-1.84L88-1.84Z M109.68-26.40L109.68 0L107.68 0L107.68-26.40L109.68-26.40Z M128.16-12.92L139-12.92L139 0L137.40 0L137.32-4.60Q136.24-2.20 133.94-0.90Q131.64 0.40 128.24 0.40L128.24 0.40Q124.64 0.40 121.94-1.26Q119.24-2.92 117.78-6Q116.32-9.08 116.32-13.20L116.32-13.20Q116.32-17.32 117.82-20.40Q119.32-23.48 122.04-25.14Q124.76-26.80 128.36-26.80L128.36-26.80Q132.40-26.80 134.96-25.20Q137.52-23.60 138.80-20.32L138.80-20.32L136.96-19.36Q136.04-22.12 133.86-23.54Q131.68-24.96 128.36-24.96L128.36-24.96Q125.40-24.96 123.16-23.54Q120.92-22.12 119.68-19.46Q118.44-16.80 118.44-13.20L118.44-13.20Q118.44-7.72 121.06-4.58Q123.68-1.44 128.32-1.44L128.32-1.44Q131.20-1.44 133.20-2.58Q135.20-3.72 136.16-5.58Q137.12-7.44 137.12-9.56L137.12-9.56L137.12-11.04L128.16-11.04L128.16-12.92Z M148.08-26.40L148.08 0L146.08 0L146.08-26.40L148.08-26.40Z"/></g>
</svg>
</g><g opacity="1" transform="rotate(0 204.4753 327.0297)">
<svg width="379.1339" height="3" x="204.4753" y="327.0297" version="1.1" preserveAspectRatio="none" viewBox="0 0 379.1339 3">
  <defs><rect x="0" y="0" width="379.1339" height="3" rx="0px" ry="0px" id="id-tBXipXk0b1721971538559"></rect></defs><use class="icon3 shapeStroke-str" style="stroke-width:0;" xlink:href="#id-tBXipXk0b1721971538559"></use>
</svg>
</g></svg></svg>